<?xml version="1.0" encoding="utf-8"?>
<!-- Generator: Adobe Illustrator 22.0.0, SVG Export Plug-In . SVG Version: 6.00 Build 0)  -->
<!DOCTYPE svg PUBLIC "-//W3C//DTD SVG 1.1//EN" "http://www.w3.org/Graphics/SVG/1.1/DTD/svg11.dtd">
<svg version="1.1" id="Layer_1" xmlns="http://www.w3.org/2000/svg" xmlns:xlink="http://www.w3.org/1999/xlink" x="0px" y="0px"
	 viewBox="0 0 39 39" style="enable-background:new 0 0 39 39;" xml:space="preserve">
<style type="text/css">
	.st0{fill:#FFFFFF;}
</style>
<g>
	<g>
		<g>
			<path class="st0" d="M19.5,39C8.7,39,0,30.3,0,19.5C0,8.7,8.7,0,19.5,0S39,8.7,39,19.5C39,30.3,30.3,39,19.5,39z M19.5,1
				C9.3,1,1,9.3,1,19.5S9.3,38,19.5,38S38,29.7,38,19.5S29.7,1,19.5,1z"/>
		</g>
		<g>
			<path class="st0" d="M18.8,27.2L7.5,20.5c-1.7-1-2.2-3.1-1.2-4.8c1-1.7,3.1-2.2,4.8-1.2l8.1,4.8l9.1-4.7c1.7-0.9,3.8-0.2,4.7,1.5
				c0.9,1.7,0.2,3.8-1.5,4.7L18.8,27.2z"/>
		</g>
	</g>
</g>
</svg>
