<?xml version="1.0" encoding="utf-8"?>
<!-- Generator: Adobe Illustrator 22.0.0, SVG Export Plug-In . SVG Version: 6.00 Build 0)  -->
<!DOCTYPE svg PUBLIC "-//W3C//DTD SVG 1.1//EN" "http://www.w3.org/Graphics/SVG/1.1/DTD/svg11.dtd">
<svg version="1.1" id="Layer_1" xmlns="http://www.w3.org/2000/svg" xmlns:xlink="http://www.w3.org/1999/xlink" x="0px" y="0px"
	 viewBox="0 0 435 135" style="enable-background:new 0 0 435 135;" xml:space="preserve">
<style type="text/css">
	.st0{fill:#6E6E6D;}
	.st1{fill:#999A9A;}
	.st2{fill:none;stroke:#858584;stroke-width:0.943;}
	.st3{fill:#964748;}
	.st4{fill:#FFFFFF;}
	.st5{fill:#CC6B32;}
</style>
<g>
	<g>
		<path class="st0" d="M156.5,52.8l-0.5,3c-0.1,0.4-0.3,0.6-0.7,0.6c0,0,0,0,0,0h0c-1.1-0.1-2.8-0.2-4.5-0.2c-2.1,0-4,1.1-4.8,5.2
			l-0.7,3.9c-0.1,0.7-0.2,1.3-0.2,1.9c0,2.6,1.4,3.3,3.1,3.3c1.7,0,3.4-0.2,4.6-0.2c0,0,0.1,0,0.1,0c0.3,0,0.5,0.2,0.5,0.5
			c0,0,0,0.1,0,0.2l-0.6,3c-0.1,0.4-0.3,0.6-0.8,0.7c-0.7,0.2-2.5,0.5-4.7,0.5c-4.1,0-7.6-2.5-7.6-7.6c0-0.7,0.1-1.5,0.2-2.3
			l0.7-3.9c1.5-8.1,5.9-9.8,10.9-9.8c2.2,0,3.9,0.3,4.5,0.5c0.4,0.1,0.6,0.2,0.6,0.5C156.5,52.7,156.5,52.7,156.5,52.8
			C156.5,52.8,156.5,52.8,156.5,52.8z"/>
		<path class="st0" d="M171.3,65l-0.4,2.2c-1,5.3-3.7,8-9.2,8c-4.2,0-6.5-2.7-6.5-6.3c0-0.6,0-1.1,0.2-1.7l0.4-2.2
			c1.1-5.6,4-8,9.2-8c4.2,0,6.5,2.5,6.5,6.3C171.5,63.8,171.4,64.6,171.3,65z M164.2,61.2c-1.8,0-2.9,1.1-3.4,3.8l-0.4,2.2
			c-0.1,0.6-0.2,1.1-0.2,1.5c0,1.6,0.7,2.3,2.3,2.3c2,0,2.9-1.3,3.4-3.8l0.4-2.2c0.1-0.5,0.2-1,0.2-1.4
			C166.5,61.9,165.7,61.2,164.2,61.2z"/>
		<path class="st0" d="M196.8,63.3l-1.9,10.9c-0.1,0.3-0.4,0.7-0.7,0.7h-3.8c-0.3,0-0.5-0.3-0.5-0.6c0,0,0-0.1,0-0.1l1.9-10.9
			c0.1-0.4,0.1-0.7,0.1-1c0-1-0.5-1.3-1.5-1.3h-0.6c-1.5,0-1.9,0.8-2.1,2.3l-1.9,10.9c-0.1,0.3-0.4,0.7-0.7,0.7h-3.8
			c-0.3,0-0.5-0.3-0.5-0.6c0,0,0-0.1,0-0.1l1.9-10.9c0.1-0.4,0.1-0.7,0.1-1.1c0-0.8-0.3-1.2-1.5-1.2h-0.6c-1.3,0-1.9,0.3-2.2,2.3
			l-1.9,10.9c-0.1,0.3-0.4,0.7-0.7,0.7H172c-0.3,0-0.5-0.3-0.5-0.6c0,0,0-0.1,0-0.1l1.9-10.9c0.9-5,3.5-6.4,7.9-6.4h0.6
			c1.8,0,3.1,0.5,4,1.3c1.2-0.8,2.6-1.3,4.5-1.3h0.6c3.7,0,5.9,1.9,5.9,5C196.9,62.4,196.9,62.8,196.8,63.3z"/>
		<path class="st0" d="M222.3,63.3l-1.9,10.9c-0.1,0.3-0.4,0.7-0.7,0.7h-3.8c-0.3,0-0.5-0.3-0.5-0.6c0,0,0-0.1,0-0.1l1.9-10.9
			c0.1-0.4,0.1-0.7,0.1-1c0-1-0.5-1.3-1.5-1.3h-0.6c-1.5,0-1.9,0.8-2.1,2.3l-1.9,10.9c-0.1,0.3-0.4,0.7-0.7,0.7h-3.8
			c-0.3,0-0.5-0.3-0.5-0.6c0,0,0-0.1,0-0.1l1.9-10.9c0.1-0.4,0.1-0.7,0.1-1.1c0-0.8-0.3-1.2-1.5-1.2h-0.6c-1.3,0-1.9,0.3-2.2,2.3
			l-1.9,10.9c-0.1,0.3-0.4,0.7-0.7,0.7h-3.8c-0.3,0-0.5-0.3-0.5-0.6c0,0,0-0.1,0-0.1l1.9-10.9c0.9-5,3.5-6.4,7.9-6.4h0.6
			c1.8,0,3.1,0.5,4,1.3c1.2-0.8,2.6-1.3,4.5-1.3h0.6c3.7,0,5.9,1.9,5.9,5C222.4,62.4,222.4,62.8,222.3,63.3z"/>
		<path class="st0" d="M240.7,57.8l-1.7,9.5c-1.4,7.6-6.6,7.9-8.9,7.9h-0.2c-1.3,0-6.3-0.5-6.3-5.9c0-0.6,0.1-1.2,0.2-1.9l1.7-9.5
			c0.1-0.3,0.2-0.7,0.7-0.7h3.8c0.4,0,0.6,0.2,0.5,0.7l-1.7,9.5c-0.1,0.6-0.2,1.2-0.2,1.6c0,1.6,0.7,2,2,2h0.2
			c1.8,0,2.6-0.7,3.1-3.6l1.7-9.5c0.1-0.3,0.2-0.7,0.7-0.7h3.8C240.6,57.2,240.8,57.4,240.7,57.8z"/>
		<path class="st0" d="M257.1,63.7l-1.9,10.5c-0.1,0.3-0.4,0.7-0.7,0.7h-3.8c-0.3,0-0.5-0.2-0.5-0.5c0,0,0-0.1,0-0.1l1.9-10.9
			c0.1-0.4,0.1-0.7,0.1-1c0-0.8-0.3-1.3-1.5-1.3h-1.5c-1.6,0-2,0.8-2.2,2.3L245,74.3c-0.1,0.3-0.4,0.7-0.7,0.7h-3.8
			c-0.3,0-0.5-0.2-0.5-0.5c0,0,0-0.1,0-0.1l2-11.3c0.7-4.2,3.4-6.1,7.9-6.1h1.5c3.8,0,5.8,1.9,5.8,5.1
			C257.2,62.5,257.2,63.1,257.1,63.7z"/>
		<path class="st0" d="M275.1,58.6l-2.6,14.9c-0.1,0.5-0.2,0.7-1.1,0.9c-1.9,0.4-4.3,0.8-6.7,0.8c-4.1,0-6.5-2.6-6.5-6.3
			c0-0.5,0-1.1,0.1-1.6l0.4-2.4c1-5.9,4.1-7.9,9.2-7.9c2.4,0,4.7,0.4,6.4,0.8C274.9,57.9,275.2,58,275.1,58.6z M267.1,61.1
			c-2.4,0-3.1,1.4-3.5,3.8l-0.4,2.4c-0.1,0.6-0.2,1.1-0.2,1.5c0,1.5,0.6,2.3,2.3,2.3c1,0,2-0.1,2.6-0.2l1.7-9.7
			C269.1,61.1,268.1,61.1,267.1,61.1z"/>
		<path class="st0" d="M283.8,51.8l-4,22.5c-0.1,0.3-0.4,0.7-0.7,0.7h-3.8c-0.3,0-0.5-0.2-0.5-0.6c0,0,0-0.1,0-0.1l4-22.5
			c0.1-0.3,0.4-0.6,0.7-0.6h3.8c0.3,0,0.5,0.2,0.5,0.5C283.8,51.7,283.8,51.7,283.8,51.8z"/>
		<path class="st0" d="M298.9,65.1l-0.3,1.8c-0.1,0.5-0.4,0.7-0.8,0.7h-9.9c-0.1,0.5-0.1,0.9-0.1,1.3c0,1.6,0.8,2.2,2.8,2.2
			c2,0,4.7-0.2,6-0.3c0.5,0,0.6,0.1,0.6,0.5l-0.4,2.4c-0.1,0.5-0.2,0.7-0.8,0.8c-2.1,0.5-3.8,0.7-6.5,0.7c-3.3,0-6.5-1.9-6.5-6.2
			c0-0.5,0.1-1.1,0.2-1.7l0.4-2.2c0.9-5.4,4.2-8.1,9.3-8.1c4.2,0,6.4,2.8,6.4,6.5C299.1,63.9,299,64.5,298.9,65.1z M292,60.9
			c-2.1,0-3.1,1.4-3.6,3.6h5.8c0.1-0.5,0.2-1,0.2-1.4C294.4,61.7,293.7,60.9,292,60.9z"/>
		<path class="st0" d="M314,58.3l-0.4,2.5c-0.1,0.3-0.3,0.6-0.6,0.6c0,0-0.1,0-0.1,0c-0.9-0.1-3.5-0.4-5.1-0.4c0,0-0.1,0-0.1,0
			c-0.8,0-1.7,0-1.7,1.1c0,0.4,0.2,0.6,0.7,1l3.4,2.2c1.9,1.2,2.4,2.6,2.4,3.8c0,4.5-3.7,6.1-7.6,6.1c-1.7,0-4-0.2-5.5-0.7
			c-0.3-0.1-0.5-0.3-0.5-0.6c0-0.1,0-0.1,0-0.2l0.5-2.5c0.1-0.4,0.3-0.6,0.7-0.6c0,0,0.1,0,0.1,0c1.6,0.2,3.8,0.4,5.2,0.4
			c1.1,0,2-0.1,2-1.4c0-0.4-0.2-0.8-0.9-1.2l-3.6-2.3c-1.4-0.9-2-2.3-2-3.7c0-4.3,3.5-5.6,7.2-5.6c2.2,0,3.9,0.3,5.4,0.7
			c0.3,0.1,0.5,0.3,0.5,0.6C314,58.2,314,58.3,314,58.3z"/>
	</g>
	<g>
		<path class="st1" d="M164,85.8l0,0.3c-0.6,5.9-5.2,7.5-10.6,7.5c-0.7,0-1.7-0.1-2.5-0.1l-1.3,7.5c-0.1,0.3-0.4,0.6-0.7,0.6h-4
			c-0.3,0-0.5-0.2-0.5-0.5c0,0,0-0.1,0-0.1l3.7-20.8c0.2-1.1,0.7-1.3,1.6-1.5c1.6-0.2,4.1-0.4,6.4-0.4c4.7,0,8,1.9,8,6.3
			C164,85,164,85.4,164,85.8z M155.3,82.7c-0.4,0-2.2,0.1-2.5,0.1l-1.1,6.3c0.3,0,2.2,0.1,2.5,0.1c2.8,0,4.3-1,4.5-3.1l0-0.3
			c0-0.2,0-0.4,0-0.6C158.8,83.4,157.7,82.7,155.3,82.7z"/>
		<path class="st1" d="M174.6,84.2l-0.5,3c-0.1,0.3-0.2,0.6-0.9,0.6c-0.9,0-2.1,0.1-2.8,0.2l-2.3,13c-0.1,0.3-0.2,0.7-0.7,0.7h-3.7
			c-0.3,0-0.6-0.2-0.5-0.7l2.7-15.4c0.1-0.4,0.3-0.7,1.1-1c2.1-0.7,4.1-0.9,7-0.9C174.4,83.6,174.6,83.8,174.6,84.2z"/>
		<path class="st1" d="M189.3,91.6l-0.4,2.2c-1,5.3-3.7,8-9.2,8c-4.2,0-6.5-2.7-6.5-6.3c0-0.6,0-1.1,0.2-1.7l0.4-2.2
			c1.1-5.6,4-8,9.2-8c4.2,0,6.5,2.5,6.5,6.3C189.5,90.4,189.4,91.3,189.3,91.6z M182.2,87.9c-1.8,0-2.9,1.1-3.4,3.8l-0.4,2.2
			c-0.1,0.6-0.2,1.1-0.2,1.5c0,1.6,0.7,2.3,2.3,2.3c2,0,2.9-1.3,3.4-3.8l0.4-2.2c0.1-0.5,0.2-1,0.2-1.4
			C184.5,88.6,183.8,87.9,182.2,87.9z"/>
		<path class="st1" d="M207.4,84.6l-6.4,14.1c-1.2,2.8-3.3,3.2-5.1,3.2s-3.6-0.5-3.9-3.2l-1.4-14.1c0,0,0-0.1,0-0.1
			c0-0.4,0.3-0.7,0.6-0.7h3.9c0.3,0,0.5,0.3,0.5,0.7l0.5,12.1c0,0.5,0.2,0.7,0.4,0.7s0.4-0.2,0.6-0.7l4.8-12.1
			c0.2-0.4,0.5-0.7,0.8-0.7h4.2c0.2,0,0.4,0.2,0.4,0.4C207.5,84.4,207.5,84.5,207.4,84.6z"/>
		<path class="st1" d="M213.9,84.5L211,101c-0.1,0.3-0.2,0.6-0.7,0.6h-3.8c-0.4,0-0.6-0.2-0.5-0.6l2.9-16.5c0.1-0.3,0.4-0.6,0.7-0.6
			h3.8C213.8,83.8,214,84,213.9,84.5z M209.4,81.2l0.5-2.9c0.1-0.3,0.2-0.6,0.7-0.6h4c0.4,0,0.6,0.2,0.5,0.6l-0.5,2.9
			c-0.1,0.3-0.2,0.6-0.7,0.6h-4C209.5,81.8,209.3,81.6,209.4,81.2z"/>
		<path class="st1" d="M230.6,90.4l-1.9,10.5c-0.1,0.3-0.4,0.7-0.7,0.7h-3.8c-0.3,0-0.5-0.2-0.5-0.5c0,0,0-0.1,0-0.1l1.9-10.9
			c0.1-0.4,0.1-0.7,0.1-1c0-0.8-0.3-1.3-1.5-1.3h-1.5c-1.6,0-2,0.8-2.2,2.3l-1.9,10.9c-0.1,0.3-0.4,0.7-0.7,0.7h-3.8
			c-0.3,0-0.5-0.2-0.5-0.5c0,0,0-0.1,0-0.1l2-11.3c0.7-4.2,3.4-6.1,7.9-6.1h1.5c3.8,0,5.8,1.9,5.8,5.1
			C230.7,89.2,230.7,89.8,230.6,90.4z"/>
		<path class="st1" d="M244.9,84.1c0.6,0.2,0.6,0.3,0.5,0.7l-0.5,2.8c-0.1,0.3-0.1,0.6-0.7,0.5c-1.2-0.1-2-0.2-3.7-0.2
			c-1.5,0-2.6,0.7-3.2,3.6l-0.5,2.6c-0.1,0.6-0.2,1.1-0.2,1.5c0,1.7,0.8,2.1,2.1,2.1c1.8,0,2.6-0.1,3.8-0.2c0.5-0.1,0.6,0.2,0.6,0.5
			l-0.5,2.8c-0.1,0.5-0.3,0.6-0.8,0.7c-0.9,0.2-2.3,0.5-4.1,0.5c-3.6,0-6.1-2.2-6.1-6c0-0.6,0.1-1.2,0.2-1.8l0.5-2.6
			c1-5.8,4.1-7.8,8.6-7.8C242.7,83.6,244.1,83.8,244.9,84.1z"/>
		<path class="st1" d="M252.5,84.5l-2.9,16.5c-0.1,0.3-0.2,0.6-0.7,0.6h-3.8c-0.4,0-0.6-0.2-0.5-0.6l2.9-16.5
			c0.1-0.3,0.4-0.6,0.7-0.6h3.8C252.4,83.8,252.6,84,252.5,84.5z M248,81.2l0.5-2.9c0.1-0.3,0.2-0.6,0.7-0.6h4
			c0.4,0,0.6,0.2,0.5,0.6l-0.5,2.9c-0.1,0.3-0.2,0.6-0.7,0.6h-4C248.1,81.8,247.9,81.6,248,81.2z"/>
		<path class="st1" d="M269.7,85.3l-2.6,14.9c-0.1,0.5-0.2,0.7-1.1,0.9c-1.9,0.4-4.3,0.8-6.7,0.8c-4.1,0-6.5-2.6-6.5-6.3
			c0-0.5,0-1.1,0.1-1.6l0.4-2.4c1-5.9,4.1-7.9,9.2-7.9c2.4,0,4.7,0.4,6.4,0.8C269.5,84.6,269.8,84.7,269.7,85.3z M261.8,87.7
			c-2.4,0-3.1,1.4-3.5,3.8l-0.4,2.4c-0.1,0.6-0.2,1.1-0.2,1.5c0,1.5,0.6,2.3,2.3,2.3c1,0,2-0.1,2.6-0.2l1.7-9.7
			C263.7,87.8,262.8,87.7,261.8,87.7z"/>
		<path class="st1" d="M278.4,78.5l-4,22.5c-0.1,0.3-0.4,0.7-0.7,0.7H270c-0.3,0-0.5-0.2-0.5-0.6c0,0,0-0.1,0-0.1l4-22.5
			c0.1-0.3,0.4-0.6,0.7-0.6h3.8c0.3,0,0.5,0.2,0.5,0.5C278.4,78.4,278.4,78.4,278.4,78.5z"/>
		<path class="st1" d="M293.6,91.7l-0.3,1.8c-0.1,0.5-0.4,0.7-0.8,0.7h-9.9c-0.1,0.5-0.1,0.9-0.1,1.3c0,1.6,0.8,2.2,2.8,2.2
			c2,0,4.7-0.2,6-0.3c0.5,0,0.6,0.1,0.6,0.5l-0.4,2.4c-0.1,0.5-0.2,0.7-0.8,0.8c-2.1,0.5-3.8,0.7-6.5,0.7c-3.3,0-6.5-1.9-6.5-6.2
			c0-0.5,0.1-1.1,0.2-1.7l0.4-2.2c0.9-5.4,4.2-8.1,9.3-8.1c4.2,0,6.4,2.8,6.4,6.5C293.7,90.6,293.7,91.2,293.6,91.7z M286.6,87.6
			c-2.1,0-3.1,1.4-3.6,3.6h5.8c0.1-0.5,0.2-1,0.2-1.4C289,88.4,288.4,87.6,286.6,87.6z"/>
		<path class="st1" d="M308.7,85l-0.4,2.5c-0.1,0.3-0.3,0.6-0.6,0.6c0,0-0.1,0-0.1,0c-0.9-0.1-3.5-0.4-5.1-0.4c0,0-0.1,0-0.1,0
			c-0.8,0-1.7,0-1.7,1.1c0,0.4,0.2,0.6,0.7,1l3.4,2.2c1.9,1.2,2.4,2.6,2.4,3.8c0,4.5-3.7,6.1-7.6,6.1c-1.7,0-4-0.2-5.5-0.7
			c-0.3-0.1-0.5-0.3-0.5-0.6c0-0.1,0-0.1,0-0.2l0.5-2.5c0.1-0.4,0.3-0.6,0.7-0.6c0,0,0.1,0,0.1,0c1.6,0.2,3.8,0.4,5.2,0.4
			c1.1,0,2-0.1,2-1.4c0-0.4-0.2-0.8-0.9-1.2l-3.6-2.3c-1.4-0.9-2-2.3-2-3.7c0-4.3,3.5-5.6,7.2-5.6c2.2,0,3.9,0.3,5.4,0.7
			c0.3,0.1,0.5,0.3,0.5,0.6C308.7,84.9,308.7,85,308.7,85z"/>
	</g>
	<g>
		<path class="st0" d="M344.8,72.1l-4.6,2.8c-3.6,2.1-7.3,3.8-8.3,8.1H347c0.5,0,0.8,0.3,0.8,0.8c0,0,0,0,0,0.1v0l-0.9,5
			c-0.1,0.5-0.6,1-1.2,1h-21.7c-0.5,0-0.8-0.3-0.8-0.8c0,0,0-0.1,0-0.1v0l0.9-5c0.9-5.4,4-9.8,8.8-12.8L338,68c4.8-3,6-3.7,6-5.9
			c0-1.6-1.2-2.3-4.7-2.3c-3,0-6.7,0.3-9.7,0.6c0,0,0,0-0.1,0c-0.4,0-0.7-0.3-0.7-0.8c0-0.1,0-0.1,0-0.2l0.7-3.8
			c0.1-0.5,0.5-0.8,1.1-0.9c2.9-0.8,6.5-1.5,10.7-1.5c7.3,0,10.9,2.9,10.9,7.5C352.1,66.1,349.5,69.2,344.8,72.1z"/>
		<path class="st0" d="M378.7,69.7l-0.7,4.2c-2.1,12.1-7.1,16.4-16.1,16.4c-6.4,0-10.6-3.8-10.6-11.6c0-1.5,0.1-3.1,0.4-4.8l0.7-4.2
			c2.2-13,7.5-16.5,16-16.5c6.7,0,10.7,3.9,10.7,11.6C379.1,66.4,379,68,378.7,69.7z M367.3,60.2c-3.1,0-5.2,2-6.5,9.5l-0.7,4.2
			c-0.3,2-0.5,3.7-0.5,5c0,3.6,1.3,4.5,3.6,4.5c3,0,5.2-1.8,6.5-9.5l0.7-4.2c0.3-2,0.5-3.7,0.5-4.9
			C370.9,61.2,369.6,60.2,367.3,60.2z"/>
		<path class="st0" d="M386.8,83l3.7-20.9l-6.8,2.7c-0.2,0.1-0.4,0.1-0.6,0.1c-0.3,0-0.5-0.2-0.4-0.6l1-5.6c0.1-0.3,0.2-0.5,0.6-0.7
			l9.5-4.1c0.3-0.1,0.7-0.2,1.2-0.2h4.4c0.5,0,0.8,0.4,0.7,0.9l-5,28.3h6.5c0.5,0,0.9,0.4,0.8,0.9l-0.9,5c-0.1,0.5-0.6,1-1.1,1
			h-21.2c-0.5,0-0.9-0.4-0.8-1l0.9-5c0.1-0.5,0.6-0.9,1.2-0.9H386.8z"/>
		<path class="st0" d="M428.4,71.1c1.8,1.5,2.9,3.7,2.9,6.3c0,9.2-6.5,13-15,13h-0.5c-6.6,0-11.1-3.5-11.1-9.1
			c0-4.3,2.1-7.8,5.7-10.2c-1.8-1.6-2.7-3.5-2.7-6.1c0-8.8,6.7-11.7,14.6-11.7h0.5c7.2,0,11,3.6,11,8.9
			C433.8,66.1,432,69.2,428.4,71.1z M419.6,74.1H418c-3.7,0-5.5,3.3-5.5,6.6c0,2.1,1.2,3.5,4.2,3.5h0.5c3.9,0,5.9-2.9,5.9-6.5
			C423.2,75.8,422.2,74.1,419.6,74.1z M421.7,59.4h-0.5c-3.8,0-5.8,2-5.8,5.7c0,1.9,1.2,3.2,3.8,3.2h1.5c3.5,0,5.4-2.5,5.4-5.7
			C426,60.5,424.7,59.4,421.7,59.4z"/>
	</g>
	<line class="st2" x1="322.3" y1="48.6" x2="311.9" y2="107.3"/>
	<g>
		<path class="st3" d="M56,131H6.8c-3.1,0-5.5-2.5-5.5-5.5V9.6c0-3,2.5-5.5,5.5-5.5H56V131z"/>
		<path class="st4" d="M105.6,134.7H52.9V0.3h52.7c3.3,0,5.9,2.6,5.9,5.8v122.8C111.5,132.1,108.9,134.7,105.6,134.7"/>
		<path class="st5" d="M101.8,131H52.6V4.1h49.2c3.1,0,5.5,2.5,5.5,5.5v115.9C107.4,128.5,104.9,131,101.8,131"/>
		<path class="st4" d="M19.9,107.2c3.4,0,6.1,1.5,8.1,4.6l2.3-1.7c-0.7-1.3-1.5-2.4-2.4-3.2c-1-0.8-2.1-1.5-3.5-2
			c-1.4-0.5-2.8-0.8-4.3-0.8c-2.4,0-4.5,0.6-6.4,1.8c-1.9,1.2-3.4,2.9-4.5,5.1c-1.1,2.2-1.6,4.5-1.6,7.1c0,3.8,1.2,7,3.5,9.6
			c1.4,1.5,2.9,2.6,4.7,3.3H24c0.7-0.2,1.3-0.5,1.9-0.9c1.8-1,3.2-2.5,4.3-4.4l-2.3-1.8c-2.1,3.1-4.8,4.6-8.1,4.6
			c-1.8,0-3.4-0.5-4.9-1.4c-1.5-0.9-2.6-2.3-3.4-4c-0.8-1.7-1.2-3.5-1.2-5.4c0-3,0.9-5.5,2.7-7.5C14.9,108.2,17.1,107.2,19.9,107.2"
			/>
		<path class="st4" d="M48.7,123.4c-0.8,1.6-1.8,2.8-3.2,3.8c-1.4,0.9-2.9,1.4-4.5,1.4c-1.6,0-3-0.5-4.4-1.4
			c-1.4-0.9-2.4-2.3-3.2-3.9c-0.8-1.7-1.2-3.5-1.2-5.3c0-1.9,0.4-3.6,1.2-5.3c0.8-1.7,1.9-3,3.2-3.9c1.4-0.9,2.8-1.4,4.4-1.4
			c2.5,0,4.6,1,6.3,3.1c1.7,2,2.5,4.6,2.5,7.6C49.9,120,49.5,121.8,48.7,123.4 M49.7,109.6c-1.1-1.8-2.4-3.2-3.9-4.1
			c-1.5-0.9-3.1-1.4-5-1.4c-3.2,0-5.9,1.3-8.2,4c-2.3,2.7-3.4,5.9-3.4,9.7c0,3.9,1.1,7.1,3.4,9.8c1.3,1.6,2.8,2.7,4.5,3.4h7.3
			c0.4-0.2,0.9-0.4,1.3-0.6c1.5-0.9,2.9-2.2,4.1-3.9v4.5h2.9V77.4h-2.9V109.6z"/>
		<path class="st4" d="M73.7,41.9c0.1,0,0.1,0,0.2,0C73.8,41.9,73.7,41.9,73.7,41.9"/>
		<path class="st4" d="M59.6,46.6c0,0,0.1-0.1,0.1-0.1C59.7,46.5,59.6,46.6,59.6,46.6"/>
		<path class="st4" d="M73.8,42.1c0.1,0,0.1,0,0.2,0C73.9,42,73.8,42,73.8,42.1"/>
		<path class="st4" d="M59.8,46.6c0,0-0.1,0.1-0.1,0.1C59.7,46.7,59.8,46.7,59.8,46.6"/>
		<path class="st4" d="M102.1,104.4c-0.2-0.6-0.2-1.1-0.5-1.6c-0.2-2.2-1-4.1-1.6-6.1c0.3-0.7-0.6-1.3-0.1-2c-0.5-1-0.3-2.2-0.7-3.2
			c0.1-1-0.9-1.9-0.3-2.7c-0.1-0.6-0.6-1.3-0.2-1.9c-1.2-2.4-2.3-4.9-3.3-7.4c-0.8-2.3-2.3-4.2-3-6.6c-1.5-1.2-1.6-3.2-3.3-4.2
			c-0.9-0.3-0.6,1.1-1.6,1c-0.2-0.4,0.4-0.9,0.7-1.3c-2.2-0.1-4.5,0.1-6.6,0.7c-0.9,0.8-2.1,0.9-3.3,0.7c-2.6-0.1-4.3,2.2-6.8,2.1
			c0.6-2.4,0.4-5.1,0.7-7.7c0.2-0.2,0.4-0.4,0.7-0.4c-0.2-0.7,0.7-1.1,0.3-1.5c0.2-2.2,0-4.6-0.4-6.8c0.1-0.1,0.2-0.2,0.3-0.2
			l-0.5-0.3c0-0.4,0.6-0.3,0.6-0.5l-0.1-0.1c-0.6-3.2-0.1-6.7,0.1-10l0.4-0.5l-0.1-0.1c0-0.1,0.2-0.1,0.1-0.2h-0.2
			c-0.2,0-0.1-0.2-0.1-0.3c-0.1-0.5,0.1-0.8,0.4-1c0,0,0,0,0,0c0,0,0-0.1,0-0.1c-0.4-1.6-0.1-3.5,0-5.2l0.4-0.3
			c0.2-0.4,0-0.8-0.1-1.2c-0.4-4.6-0.1-10-0.3-14.8l0.2-0.2c0.3-0.2-0.1-0.4-0.2-0.3c-0.1-0.3,0.2-0.4,0.1-0.7h-0.1
			c-0.2-0.1-0.2-0.2-0.2-0.4c0-0.2,0.3-0.2,0.4-0.3c0-1.1-0.3-2.1-0.3-3l-0.2,0.1c-0.5-0.6,0.7-0.8,0.4-1.5h-0.4
			c-0.4-0.2,0-0.6-0.2-0.9c0.2-0.4,0.7-0.2,0.9-0.4c-0.1,0-0.2,0.1-0.3,0.1c-0.4-0.3,0-0.6-0.2-1c0-0.2-0.3-0.1-0.4-0.1
			c-0.9-0.4,0.4-0.6,0.2-1l-0.3-0.1c0.1-0.3,0.1-0.6,0.4-0.8c-0.2,0-0.3-0.3-0.4-0.4c-0.2,0-0.4,0.2-0.5-0.1c0-0.1,0.1-0.2,0.1-0.3
			c0.3-0.2,0.6-0.3,0.8-0.1V8.4c-0.2,0-0.5,0.1-0.7-0.1c0-1.5-0.2-2.9-0.5-4.2h-8.9c0,0.2-0.1,0.4-0.1,0.7c0,0.2,0.2,0.7,0.2,0.9
			c0.1,0.1,0,0.3-0.2,0.5c-0.2,0-0.2,0.5-0.2,0.6c0,0.2,0.2,0.2,0.1,0.5c0.1,0.2,0.1,0.5,0.1,1.1c-0.4,0.6-0.5,1.1-0.5,1.8
			c0.6,0.8-0.9,1.1-0.1,1.8c-0.4,0.5,0.3,1.4-0.2,2c-1,1.3,0.7,2.7-0.3,4c-0.2,0-0.5-0.1-0.6,0.1c0.2,0.6-0.7,1,0,1.5
			c0.1,0.2,0,0.3-0.1,0.5c0.7,0.9-0.1,2,0.1,2.9c-0.3,0.4,0.3,0.5,0.1,1c-0.1,0.1-0.1,0.2-0.3,0.2c0.4,0.7-0.6,1.2,0,1.7
			c0,0.1,0,0.3-0.1,0.4c0,0.4,0,1.3-0.2,1.5c0.1,0.8,0,1.7-0.4,2.4c0.4,0.1,0.1,0.5,0,0.7c-0.3-0.1-0.3-0.5-0.4-0.7
			c-0.3,0.3,0.3,0.8-0.2,1c0,0.4,0.6,0,0.7,0.4c0,1.4-0.1,2.8-0.8,4c0.3,0.3-0.3,0.4-0.2,0.7c0.6,0.3,0,0.8,0.1,1.3
			c-0.2,1.7,0.2,3.9-0.7,5.2c0,0.3,0.2,0.5,0.4,0.7c0.1,0.5,0.1,1.6-0.2,2.1l0.3,0.1c0.1,0.3,0.1,0.8-0.1,1.1c0.1-0.1,0.2-0.1,0.3,0
			c0.4,6.5,0.4,13.5,0,19.9l-0.7,1c-1.2,1.7,0,4.1-1,5.9c0.3,1.2,0.4,2.5,0.4,3.8c0.3,1.4-0.8,2.3-1,3.5c1.1,1.7,0.2,4-0.1,5.8
			c0.4,1.5-0.6,2.5-0.9,3.8c-0.1,4.4,0.6,8.6,1.5,12.5c1.2,1.4,1.9,3.6,3.9,4.3c0.3,0.3,1.2,0.3,1,0.9c0.3-0.1,0.6,0.2,0.8,0.3
			c0-0.8,1-0.3,1.2-1l0.1,0.1c0.4,0.1,0.1-0.3,0.4-0.4c1.3-0.1,0,1.5,0.7,2c0.3-0.7,0.8-1.3,1.3-1.8c1.5-2.7,1.6-6,2.8-8.8
			c0.2-1.3-0.3-3,1-3.8c0.3-1.8,1.7-3.2,2.5-4.8c0-1.1,1.2-1.8,1.9-2.6c0.6-0.3,0.4-1.2,1.2-1.2c1.4-1.4,3-2.1,4.5-3.2
			c1.1-0.7,2.3-1.4,3.4-1.7l-0.2,0.2c1.6-0.5,2.5,1.4,3.9,1.8c-0.6,2.5-1.6,5.3-0.9,8c-0.3,3.6-1.6,6.9-1.1,10.8
			c0.4,0.4,0.8,0.8,0.7,1.5c1.1,1.7,0.9,3.9,1.6,5.7c0.6,2.4,3.5,2.8,4.5,4.9l0.2-0.4c0.4,0.4,0.5,0.9,0.7,1.3
			c0.1,0.3,0.6,0,0.5,0.4c0.8-1.3,1.6-2.5,2.7-3.7c0.5-0.6,1.1-0.8,1.5-1.5c0.4-0.5,0.9-1.1,1.5-0.8c-0.3-1.1,0.4-2.1,1.1-2.6
			l-0.6-0.6C101.3,105.5,101.5,104.8,102.1,104.4"/>
	</g>
</g>
</svg>
