<?xml version="1.0" encoding="utf-8"?>
<!-- Generator: Adobe Illustrator 22.0.0, SVG Export Plug-In . SVG Version: 6.00 Build 0)  -->
<!DOCTYPE svg PUBLIC "-//W3C//DTD SVG 1.1//EN" "http://www.w3.org/Graphics/SVG/1.1/DTD/svg11.dtd">
<svg version="1.1" xmlns="http://www.w3.org/2000/svg" xmlns:xlink="http://www.w3.org/1999/xlink" x="0px" y="0px"
	 viewBox="0 0 16 16" style="enable-background:new 0 0 16 16;" xml:space="preserve">
<style type="text/css">
	.st0{fill:#FFFFFF;}
	.st1{fill:#E4DEDE;}
</style>
<g id="Youtube">
	<g>
		<polygon class="st0" points="0.7,0.4 15.3,8 0.7,15.6 		"/>
		<polygon class="st1" points="0.7,0.5 13.4,9 15.3,8 1.9,1 		"/>
	</g>
</g>
<g id="Facebook">
	<g>
		<path class="st0" d="M10,3.3h1.3V1H9.6H9.4c0,0-1.3,0-2.1,1.1c0,0-0.5,0.6-0.6,2.2l0,0V6h-2v2.5h2V15H9V8.6h2l0.3-2.5H9V4.4
			C9,4.2,9.1,3.3,10,3.3"/>
	</g>
</g>
<g id="Twitter">
	<g>
		<path class="st0" d="M5.1,14.1c5.7,0,8.8-4.7,8.8-8.8c0-0.1,0-0.3,0-0.4c0.6-0.4,1.1-1,1.5-1.6c-0.6,0.2-1.1,0.4-1.8,0.5
			c0.6-0.4,1.1-1,1.4-1.7c-0.6,0.4-1.3,0.6-2,0.8c-0.6-0.6-1.4-1-2.2-1C9.1,1.9,7.8,3.3,7.8,5c0,0.2,0,0.5,0.1,0.7
			C5.2,5.5,3,4.3,1.5,2.4C1.2,2.9,1.1,3.4,1.1,4c0,1.1,0.5,2,1.4,2.6c-0.5,0-1-0.2-1.4-0.4l0,0c0,1.5,1.1,2.7,2.5,3
			C3.2,9.3,3,9.4,2.8,9.4s-0.4,0-0.6-0.1c0.4,1.2,1.5,2.1,2.9,2.1c-1.1,0.8-2.4,1.3-3.8,1.3c-0.2,0-0.5,0-0.7,0
			C1.9,13.6,3.5,14.1,5.1,14.1"/>
	</g>
</g>
<g id="LinkedIn">
	<g>
		<g>
			<path class="st0" d="M2.7,0.4c0.9,0,1.7,0.8,1.7,1.8S3.7,4,2.7,4C1.8,4,0.9,3.2,0.9,2.2S1.8,0.4,2.7,0.4 M1.2,5.4h2.9v10H1.2V5.4
				z"/>
			<path class="st0" d="M6,5.4h2.8v1.4l0,0c0.4-0.8,1.4-1.6,2.8-1.6c3,0,3.5,2.1,3.5,4.8v5.5h-2.9v-4.9c0-1.2,0-2.7-1.5-2.7
				s-1.8,1.3-1.8,2.6v5H6V5.4z"/>
		</g>
	</g>
</g>
<g id="Instagram">
	<g>
		<g>
			<path class="st0" d="M14.1,10.3c0,2.1-1.7,3.7-3.7,3.7H5.7c-2.1,0-3.7-1.7-3.7-3.7V5.7c0-2.1,1.7-3.7,3.7-3.7h4.7
				c2.1,0,3.7,1.7,3.7,3.7V10.3z M10.9,0.5H5.1c-2.6,0-4.6,2.1-4.6,4.6v5.8c0,2.6,2.1,4.6,4.6,4.6h5.8c2.6,0,4.6-2.1,4.6-4.6V5.1
				C15.5,2.6,13.4,0.5,10.9,0.5"/>
			<path class="st0" d="M8.2,10.4c-1.3,0-2.4-1.1-2.4-2.4c0-1.3,1.1-2.4,2.4-2.4c1.3,0,2.4,1.1,2.4,2.4C10.6,9.3,9.5,10.4,8.2,10.4
				 M8.2,4.1c-2.2,0-4,1.8-4,4c0,2.2,1.8,4,4,4c2.2,0,4-1.8,4-4C12.2,5.8,10.4,4.1,8.2,4.1"/>
			<path class="st0" d="M12.9,4c0,0.6-0.5,1-1,1s-1-0.4-1-1c0-0.6,0.4-1,1-1S12.9,3.5,12.9,4"/>
		</g>
	</g>
</g>
</svg>
