<?xml version="1.0" encoding="utf-8"?>
<!-- Generator: Adobe Illustrator 22.0.0, SVG Export Plug-In . SVG Version: 6.00 Build 0)  -->
<!DOCTYPE svg PUBLIC "-//W3C//DTD SVG 1.1//EN" "http://www.w3.org/Graphics/SVG/1.1/DTD/svg11.dtd">
<svg version="1.1" id="Layer_1" xmlns="http://www.w3.org/2000/svg" xmlns:xlink="http://www.w3.org/1999/xlink" x="0px" y="0px"
	 viewBox="0 0 41 41" style="enable-background:new 0 0 41 41;" xml:space="preserve">
<style type="text/css">
	.st0{fill:#FFFFFF;}
	.st1{fill:#757575;}
</style>
<g>
	<path class="st0" d="M39.1,28c0-5.4-2.4-11.8-6.9-17.3C24.1,1.1,12.4-2.3,6,3C3.2,5.3,1.9,8.9,1.9,13c0,5.4,2.4,11.8,6.9,17.3
		c8,9.6,19.7,13.1,26.1,7.7C37.8,35.7,39.1,32.1,39.1,28"/>
	<path class="st1" d="M31,24l-2.6-2.6l-3.7,3.7v-8.4c0-4-3.3-7.3-7.3-7.3c-4,0-7.3,3.3-7.3,7.3v1.8h3.7v-1.8c0-2,1.6-3.7,3.7-3.7
		c2,0,3.7,1.6,3.7,3.7v8.4l-3.7-3.7L14.9,24l8.1,8.1L31,24z"/>
</g>
</svg>
