<svg id="Layer_1" xmlns="http://www.w3.org/2000/svg" xmlns:xlink="http://www.w3.org/1999/xlink" viewBox="0 0 496 550"><style>.st0{clip-path:url(#SVGID_2_);fill:url(#SVGID_3_)}.st1{clip-path:url(#SVGID_5_);fill:url(#SVGID_6_)}.st2{clip-path:url(#SVGID_8_);fill:url(#SVGID_9_)}.st3{clip-path:url(#SVGID_11_)}.st4{clip-path:url(#SVGID_15_);fill:url(#SVGID_16_)}.st5{clip-path:url(#SVGID_18_)}.st6{clip-path:url(#SVGID_22_)}.st7{clip-path:url(#SVGID_26_)}.st8{clip-path:url(#SVGID_30_)}.st9{clip-path:url(#SVGID_34_)}</style><defs><path id="SVGID_1_" d="M343.3 9C257.7 11 150.5 37.8 119 85.6c-7.8 11.9-11.4 27.4-11.4 45.1 0 20 4.5 42.7 12.3 66.2 8.3-21.9 24.2-39.9 49.7-50.9 97.6-42.3 228.8-14.2 286 41.1 6.8-25 10.6-51.2 10.6-77.7 0-22.6-2.8-45.4-9-68C451.5 20.8 413 10.3 363.6 9h-20.3z"/></defs><clipPath id="SVGID_2_"><use xlink:href="#SVGID_1_" overflow="visible"/></clipPath><linearGradient id="SVGID_3_" gradientUnits="userSpaceOnUse" x1="-453.494" y1="672.544" x2="-452.494" y2="672.544" gradientTransform="matrix(-158.3192 502.2239 -517.8387 -153.5453 276816.75 330943.281)"><stop offset="0" stop-color="#f7d91b"/><stop offset="1" stop-color="#cb571c"/></linearGradient><path class="st0" d="M138.3-88.2L53.5 180.9l382.1 113.3 84.9-269.1z"/><defs><path id="SVGID_4_" d="M14.5 336.7v14.9c.2 1.1.4 2.3.6 3.4 15.7 71.6 141.8 182.8 281.2 183h.7c16.6 0 33.4-1.6 50.1-5 14.4-2.9 25-21.6 31.8-48.9-94 17.3-258.7-25.2-273-70.3-3.1-9.7-4.5-21-4.5-33.2 0-26.4 6.7-57.5 18.5-88.5-4.7-17.7-7.3-35.2-7.3-51.7 0-3.9.1-7.7.4-11.5-51.9 30.6-93.4 70.8-98.5 107.8"/></defs><clipPath id="SVGID_5_"><use xlink:href="#SVGID_4_" overflow="visible"/></clipPath><linearGradient id="SVGID_6_" gradientUnits="userSpaceOnUse" x1="-453.722" y1="673.95" x2="-452.722" y2="673.95" gradientTransform="matrix(-490.2863 -192.1154 198.0885 -475.5023 -355457.875 233799.25)"><stop offset="0" stop-color="#f7d91b"/><stop offset="1" stop-color="#cb571c"/></linearGradient><path class="st1" d="M489.7 272.2L65.7 106-96.2 494.6l424 166.2z"/><defs><path id="SVGID_7_" d="M387.6 400.9c0 31.1-2.9 60.2-8.6 83.2 22.3-4.1 40.6-11.6 52-23.2 16.7-17 24.5-43.2 24.5-73.7 0-17.5-2.6-36.3-7.4-55.6-16.9 23.9-38.1 48-60.5 69.3"/></defs><clipPath id="SVGID_8_"><use xlink:href="#SVGID_7_" overflow="visible"/></clipPath><linearGradient id="SVGID_9_" gradientUnits="userSpaceOnUse" x1="-452.377" y1="673.961" x2="-451.377" y2="673.961" gradientTransform="matrix(127.6543 -399.9496 412.3845 123.8051 -219822.031 -263783.781)"><stop offset="0" stop-color="#f7d91b"/><stop offset="1" stop-color="#cb571c"/></linearGradient><path class="st2" d="M448.8 505l51.1-160.1-114.2-34.3-51.1 160.1z"/><defs><path id="SVGID_10_" d="M101.5 380.5c0 12.3 1.5 23.5 4.5 33.2 14.3 45.2 179 87.7 273 70.3 5.7-23 8.6-52.1 8.6-83.2-49 46.7-103.7 80.4-129.9 72.1C204.2 456 141 372.1 119.9 292c-11.7 31-18.4 62.1-18.4 88.5"/></defs><clipPath id="SVGID_11_"><use xlink:href="#SVGID_10_" overflow="visible"/></clipPath><g class="st3"><defs><path id="SVGID_12_" d="M100.6 291.2h287.7v197.9H100.6z"/></defs><clipPath id="SVGID_13_"><use xlink:href="#SVGID_12_" overflow="visible"/></clipPath><g clip-path="url(#SVGID_13_)"><image width="458" height="666" xlink:href="D9570238C5469E97.jpg" transform="rotate(-90 294.839 194.2) scale(.432)" overflow="visible"/></g></g><defs><path id="SVGID_14_" d="M117.1 205.6c-2.1 7.4-3.4 15.1-4 23.2 5.1-3 10.2-5.9 15.5-8.7-3.2-7.7-6.1-15.5-8.6-23.1-1.1 2.7-2.1 5.6-2.9 8.6m306.2 60.9c10.9 21.4 19.3 43.5 24.7 65 21.8-31 36.1-62 36.1-87 0-3.6-.3-7-.9-10.3-3.1-17-12.9-33-27.6-47.2-7.6 28.4-18.9 55.2-32.3 79.5"/></defs><clipPath id="SVGID_15_"><use xlink:href="#SVGID_14_" overflow="visible"/></clipPath><linearGradient id="SVGID_16_" gradientUnits="userSpaceOnUse" x1="-453.388" y1="674.357" x2="-452.388" y2="674.357" gradientTransform="matrix(-253.4846 -334.6721 345.0775 -245.8411 -347168.313 14526.012)"><stop offset="0" stop-color="#f7d91b"/><stop offset="1" stop-color="#cb571c"/></linearGradient><path class="st4" d="M555.2 280.9L354.1 15.4l-312 222.3 201 265.5z"/><defs><path id="SVGID_17_" d="M274.9 125.6c-36.2 0-72.6 6.3-105.3 20.4-25.5 11.1-41.4 29-49.7 50.9 2.5 7.7 5.4 15.4 8.6 23.1 14.2-7.6 28.9-14.4 43.7-20.2 41.4-50.6 96.1-79.5 150.5-46.2 43.1 26.4 77.5 68 100.5 112.9 13.5-24.3 24.8-51.1 32.4-79.4-38-36.8-108.8-61.5-180.7-61.5"/></defs><clipPath id="SVGID_18_"><use xlink:href="#SVGID_17_" overflow="visible"/></clipPath><g class="st5"><defs><path id="SVGID_19_" d="M119.2 124.4h337V267h-337z"/></defs><clipPath id="SVGID_20_"><use xlink:href="#SVGID_19_" overflow="visible"/></clipPath><g clip-path="url(#SVGID_20_)"><image width="330" height="780" xlink:href="D9570238C5469E9C.jpg" transform="rotate(-90 193.103 73.888) scale(.432)" overflow="visible"/></g></g><defs><path id="SVGID_21_" d="M128.6 220.1c-5.2 2.8-10.4 5.7-15.5 8.7-.3 3.8-.4 7.6-.4 11.5 0 16.6 2.6 34.1 7.3 51.7 12.5-32.8 30.6-65.5 52.4-92.1-14.9 5.8-29.7 12.6-43.8 20.2"/></defs><clipPath id="SVGID_22_"><use xlink:href="#SVGID_21_" overflow="visible"/></clipPath><g class="st6"><defs><path id="SVGID_23_" d="M111.9 199.2h60.9v93.3h-60.9z"/></defs><clipPath id="SVGID_24_"><use xlink:href="#SVGID_23_" overflow="visible"/></clipPath><g clip-path="url(#SVGID_24_)"><image width="216" height="141" xlink:href="D9570238C5469E9D.jpg" transform="rotate(-90 202.175 90.304) scale(.432)" overflow="visible"/></g></g><defs><path id="SVGID_25_" d="M382.2 325.6c3.6 24.8 5.4 50.4 5.4 74.9v.4c22.4-21.3 43.6-45.3 60.4-69.3-5.4-21.5-13.8-43.7-24.7-65-12.3 22-26.3 41.9-41.1 59"/></defs><clipPath id="SVGID_26_"><use xlink:href="#SVGID_25_" overflow="visible"/></clipPath><g class="st7"><defs><path id="SVGID_27_" d="M381.4 265.7h67.4v135.6h-67.4z"/></defs><clipPath id="SVGID_28_"><use xlink:href="#SVGID_27_" overflow="visible"/></clipPath><g clip-path="url(#SVGID_28_)"><image width="314" height="156" xlink:href="D9570238C5469E9F.jpg" transform="rotate(-90 391.391 9.952) scale(.432)" overflow="visible"/></g></g><defs><path id="SVGID_29_" d="M274.7 139.4c-37.5 0-73.3 24.8-102.5 60.5 60.2-23.7 121.8-31.3 153.5-7.3 29.3 22.3 47.9 75.3 56.4 133.1 14.8-17.1 28.8-37 41.1-59.1-23-44.9-57.4-86.5-100.5-112.9-16-9.9-32.2-14.3-48-14.3"/></defs><clipPath id="SVGID_30_"><use xlink:href="#SVGID_29_" overflow="visible"/></clipPath><g class="st8"><defs><path id="SVGID_31_" d="M171.5 138.3h252.3v187.9H171.5z"/></defs><clipPath id="SVGID_32_"><use xlink:href="#SVGID_31_" overflow="visible"/></clipPath><g clip-path="url(#SVGID_32_)"><image width="435" height="584" xlink:href="D9570238C5469E9B.jpg" transform="rotate(-90 248.83 77.344) scale(.432)" overflow="visible"/></g></g><defs><path id="SVGID_33_" d="M172.3 199.8c-21.8 26.6-39.9 59.3-52.4 92.1C141 372 204.2 456 257.7 472.9c26.2 8.3 80.9-25.4 129.9-72.1v-.4c0-24.5-1.8-50.1-5.4-74.9-8.5-57.8-27-110.8-56.4-133.1-13.4-10.2-32.2-14.7-54-14.7-29.7.2-64.8 8.5-99.5 22.1"/></defs><clipPath id="SVGID_34_"><use xlink:href="#SVGID_33_" overflow="visible"/></clipPath><g class="st9"><defs><path id="SVGID_35_" d="M119.2 176.7h269.1v298.5H119.2z"/></defs><clipPath id="SVGID_36_"><use xlink:href="#SVGID_35_" overflow="visible"/></clipPath><g clip-path="url(#SVGID_36_)"><image width="691" height="623" xlink:href="D9570238C5469E94.jpg" transform="rotate(-90 297.215 178) scale(.432)" overflow="visible"/></g></g></svg>